<mxfile host="65bd71144e">
    <diagram name="第 1 页" id="EOuV5ERvqpZUSFJWVVJ6">
        <mxGraphModel dx="1078" dy="5382" grid="1" gridSize="10" guides="1" tooltips="1" connect="1" arrows="1" fold="1" page="1" pageScale="1" pageWidth="3300" pageHeight="4681" math="0" shadow="0">
            <root>
                <mxCell id="0"/>
                <mxCell id="1" parent="0"/>
                <mxCell id="11" value=":老師" style="shape=umlActor;verticalLabelPosition=bottom;verticalAlign=top;html=1;outlineConnect=0;" parent="1" vertex="1">
                    <mxGeometry x="60" y="280" width="30" height="60" as="geometry"/>
                </mxCell>
                <mxCell id="15" value="&lt;u&gt;查看UI&lt;/u&gt;" style="html=1;" parent="1" vertex="1">
                    <mxGeometry x="100" y="30" width="110" height="50" as="geometry"/>
                </mxCell>
                <mxCell id="16" value="&lt;u&gt;建立UI&lt;/u&gt;" style="html=1;" parent="1" vertex="1">
                    <mxGeometry x="320" y="285" width="110" height="50" as="geometry"/>
                </mxCell>
                <mxCell id="17" value="&lt;u&gt;載入資料UI&lt;/u&gt;" style="html=1;" parent="1" vertex="1">
                    <mxGeometry x="330" y="480" width="110" height="50" as="geometry"/>
                </mxCell>
                <mxCell id="18" value="&lt;u&gt;確認資料UI&lt;/u&gt;" style="html=1;" parent="1" vertex="1">
                    <mxGeometry x="470" y="-110" width="110" height="50" as="geometry"/>
                </mxCell>
                <mxCell id="19" value="&lt;u&gt;儲存API&lt;/u&gt;" style="html=1;" parent="1" vertex="1">
                    <mxGeometry x="840" y="-80" width="110" height="50" as="geometry"/>
                </mxCell>
                <mxCell id="20" value="&lt;u&gt;:刪除&lt;/u&gt;" style="ellipse;shape=umlControl;whiteSpace=wrap;html=1;" parent="1" vertex="1">
                    <mxGeometry x="1000" y="-160" width="70" height="80" as="geometry"/>
                </mxCell>
                <mxCell id="21" value="&lt;u&gt;:上傳資料&lt;/u&gt;" style="ellipse;shape=umlControl;whiteSpace=wrap;html=1;" parent="1" vertex="1">
                    <mxGeometry x="570" y="285" width="70" height="80" as="geometry"/>
                </mxCell>
                <mxCell id="22" value="&lt;u&gt;:顯示&lt;/u&gt;" style="ellipse;shape=umlControl;whiteSpace=wrap;html=1;" parent="1" vertex="1">
                    <mxGeometry x="420" y="80" width="70" height="80" as="geometry"/>
                </mxCell>
                <mxCell id="23" value="&lt;u&gt;:暫存資料庫&lt;/u&gt;" style="ellipse;shape=umlControl;whiteSpace=wrap;html=1;" parent="1" vertex="1">
                    <mxGeometry x="1020" y="175" width="70" height="80" as="geometry"/>
                </mxCell>
                <mxCell id="24" value="&lt;u&gt;:資料庫&lt;/u&gt;" style="ellipse;shape=umlControl;whiteSpace=wrap;html=1;" parent="1" vertex="1">
                    <mxGeometry x="630" y="80" width="70" height="80" as="geometry"/>
                </mxCell>
                <mxCell id="25" value="" style="endArrow=none;startArrow=none;endFill=0;startFill=0;endSize=8;html=1;verticalAlign=bottom;labelBackgroundColor=none;strokeWidth=3;rounded=0;entryX=0;entryY=1;entryDx=0;entryDy=0;exitX=1;exitY=0.3333333333333333;exitDx=0;exitDy=0;exitPerimeter=0;" parent="1" target="15" edge="1">
                    <mxGeometry width="160" relative="1" as="geometry">
                        <mxPoint x="90" y="300.64" as="sourcePoint"/>
                        <mxPoint x="418" y="210" as="targetPoint"/>
                    </mxGeometry>
                </mxCell>
                <mxCell id="26" value="" style="html=1;verticalAlign=bottom;labelBackgroundColor=none;endArrow=block;endFill=1;rounded=0;" parent="1" edge="1">
                    <mxGeometry width="160" relative="1" as="geometry">
                        <mxPoint x="480" y="620" as="sourcePoint"/>
                        <mxPoint x="680" y="560" as="targetPoint"/>
                    </mxGeometry>
                </mxCell>
                <mxCell id="27" value="" style="endArrow=block;startArrow=none;endFill=0;startFill=0;endSize=8;html=1;verticalAlign=bottom;dashed=1;labelBackgroundColor=none;rounded=0;" parent="1" edge="1">
                    <mxGeometry width="160" relative="1" as="geometry">
                        <mxPoint x="800" y="570" as="sourcePoint"/>
                        <mxPoint x="660" y="640" as="targetPoint"/>
                    </mxGeometry>
                </mxCell>
                <mxCell id="28" value="&lt;span style=&quot;color: rgb(0, 0, 0); font-family: Helvetica; font-size: 11px; font-style: normal; font-variant-ligatures: normal; font-variant-caps: normal; font-weight: 400; letter-spacing: normal; orphans: 2; text-align: center; text-indent: 0px; text-transform: none; widows: 2; word-spacing: 0px; -webkit-text-stroke-width: 0px; white-space: nowrap; background-color: rgb(255, 255, 255); text-decoration-thickness: initial; text-decoration-style: initial; text-decoration-color: initial; display: inline !important; float: none;&quot;&gt;1:建立備課資料()&lt;/span&gt;" style="text;whiteSpace=wrap;html=1;rotation=-15;" parent="1" vertex="1">
                    <mxGeometry x="810" y="580" width="120" height="40" as="geometry"/>
                </mxCell>
                <mxCell id="29" value="" style="endArrow=none;startArrow=none;endFill=0;startFill=0;endSize=8;html=1;verticalAlign=bottom;labelBackgroundColor=none;strokeWidth=3;rounded=0;entryX=-0.014;entryY=0.6;entryDx=0;entryDy=0;exitX=1;exitY=0.75;exitDx=0;exitDy=0;entryPerimeter=0;" parent="1" source="15" target="22" edge="1">
                    <mxGeometry width="160" relative="1" as="geometry">
                        <mxPoint x="250" y="305.32" as="sourcePoint"/>
                        <mxPoint x="330" y="154.68" as="targetPoint"/>
                    </mxGeometry>
                </mxCell>
                <mxCell id="30" value="" style="endArrow=none;startArrow=none;endFill=0;startFill=0;endSize=8;html=1;verticalAlign=bottom;labelBackgroundColor=none;strokeWidth=3;rounded=0;entryX=0.029;entryY=0.613;entryDx=0;entryDy=0;exitX=1;exitY=0.575;exitDx=0;exitDy=0;exitPerimeter=0;entryPerimeter=0;" parent="1" source="22" target="24" edge="1">
                    <mxGeometry width="160" relative="1" as="geometry">
                        <mxPoint x="110" y="320.64" as="sourcePoint"/>
                        <mxPoint x="190" y="170" as="targetPoint"/>
                    </mxGeometry>
                </mxCell>
                <mxCell id="31" value="" style="endArrow=none;startArrow=none;endFill=0;startFill=0;endSize=8;html=1;verticalAlign=bottom;labelBackgroundColor=none;strokeWidth=3;rounded=0;exitX=0.75;exitY=1;exitDx=0;exitDy=0;" parent="1" source="15" target="16" edge="1">
                    <mxGeometry width="160" relative="1" as="geometry">
                        <mxPoint x="220" y="206.96" as="sourcePoint"/>
                        <mxPoint x="332.03" y="209.99999999999997" as="targetPoint"/>
                    </mxGeometry>
                </mxCell>
                <mxCell id="32" value="" style="endArrow=none;startArrow=none;endFill=0;startFill=0;endSize=8;html=1;verticalAlign=bottom;labelBackgroundColor=none;strokeWidth=3;rounded=0;entryX=0;entryY=0.261;entryDx=0;entryDy=0;entryPerimeter=0;" parent="1" target="17" edge="1">
                    <mxGeometry width="160" relative="1" as="geometry">
                        <mxPoint x="90" y="300" as="sourcePoint"/>
                        <mxPoint x="252.02999999999997" y="353.03999999999996" as="targetPoint"/>
                    </mxGeometry>
                </mxCell>
                <mxCell id="33" value="" style="endArrow=none;startArrow=none;endFill=0;startFill=0;endSize=8;html=1;verticalAlign=bottom;labelBackgroundColor=none;strokeWidth=3;rounded=0;entryX=0.75;entryY=0;entryDx=0;entryDy=0;exitX=0.618;exitY=1.02;exitDx=0;exitDy=0;exitPerimeter=0;" parent="1" source="16" target="17" edge="1">
                    <mxGeometry width="160" relative="1" as="geometry">
                        <mxPoint x="330" y="300" as="sourcePoint"/>
                        <mxPoint x="442.03" y="303.03999999999996" as="targetPoint"/>
                    </mxGeometry>
                </mxCell>
                <mxCell id="34" value="" style="endArrow=none;startArrow=none;endFill=0;startFill=0;endSize=8;html=1;verticalAlign=bottom;labelBackgroundColor=none;strokeWidth=3;rounded=0;exitX=1;exitY=0.5;exitDx=0;exitDy=0;" parent="1" source="16" target="21" edge="1">
                    <mxGeometry width="160" relative="1" as="geometry">
                        <mxPoint x="430" y="266.96" as="sourcePoint"/>
                        <mxPoint x="542.03" y="269.99999999999994" as="targetPoint"/>
                    </mxGeometry>
                </mxCell>
                <mxCell id="35" value="" style="endArrow=none;startArrow=none;endFill=0;startFill=0;endSize=8;html=1;verticalAlign=bottom;labelBackgroundColor=none;strokeWidth=3;rounded=0;exitX=0.986;exitY=0.613;exitDx=0;exitDy=0;exitPerimeter=0;" parent="1" source="21" target="36" edge="1">
                    <mxGeometry width="160" relative="1" as="geometry">
                        <mxPoint x="650" y="295" as="sourcePoint"/>
                        <mxPoint x="700" y="290" as="targetPoint"/>
                    </mxGeometry>
                </mxCell>
                <mxCell id="36" value="&lt;u&gt;:生成推薦內容&lt;/u&gt;" style="ellipse;shape=umlControl;whiteSpace=wrap;html=1;" parent="1" vertex="1">
                    <mxGeometry x="770" y="320" width="80" height="80" as="geometry"/>
                </mxCell>
                <mxCell id="39" value="" style="endArrow=none;startArrow=none;endFill=0;startFill=0;endSize=8;html=1;verticalAlign=bottom;labelBackgroundColor=none;strokeWidth=3;rounded=0;exitX=1;exitY=0.613;exitDx=0;exitDy=0;exitPerimeter=0;" parent="1" source="36" target="23" edge="1">
                    <mxGeometry width="160" relative="1" as="geometry">
                        <mxPoint x="790" y="327.35999999999996" as="sourcePoint"/>
                        <mxPoint x="871.1181696702099" y="334.99818080585084" as="targetPoint"/>
                    </mxGeometry>
                </mxCell>
                <mxCell id="40" value="" style="endArrow=none;startArrow=none;endFill=0;startFill=0;endSize=8;html=1;verticalAlign=bottom;labelBackgroundColor=none;strokeWidth=3;rounded=0;exitX=0.929;exitY=0.813;exitDx=0;exitDy=0;exitPerimeter=0;entryX=0.029;entryY=0.488;entryDx=0;entryDy=0;entryPerimeter=0;" parent="1" source="22" target="23" edge="1">
                    <mxGeometry width="160" relative="1" as="geometry">
                        <mxPoint x="670" y="241.17999999999995" as="sourcePoint"/>
                        <mxPoint x="751.1181696702099" y="248.81818080585083" as="targetPoint"/>
                    </mxGeometry>
                </mxCell>
                <mxCell id="41" value="" style="endArrow=none;startArrow=none;endFill=0;startFill=0;endSize=8;html=1;verticalAlign=bottom;labelBackgroundColor=none;strokeWidth=3;rounded=0;entryX=0.5;entryY=1;entryDx=0;entryDy=0;" parent="1" source="22" target="18" edge="1">
                    <mxGeometry width="160" relative="1" as="geometry">
                        <mxPoint x="470" y="79.99999999999997" as="sourcePoint"/>
                        <mxPoint x="551.1181696702099" y="87.63818080585085" as="targetPoint"/>
                    </mxGeometry>
                </mxCell>
                <mxCell id="42" value="" style="endArrow=none;startArrow=none;endFill=0;startFill=0;endSize=8;html=1;verticalAlign=bottom;labelBackgroundColor=none;strokeWidth=3;rounded=0;exitX=0.5;exitY=1;exitDx=0;exitDy=0;entryX=0.043;entryY=0.313;entryDx=0;entryDy=0;entryPerimeter=0;" parent="1" source="18" target="23" edge="1">
                    <mxGeometry width="160" relative="1" as="geometry">
                        <mxPoint x="698.88" y="136.17999999999995" as="sourcePoint"/>
                        <mxPoint x="779.9981696702099" y="143.81818080585083" as="targetPoint"/>
                    </mxGeometry>
                </mxCell>
                <mxCell id="43" value="" style="endArrow=none;startArrow=none;endFill=0;startFill=0;endSize=8;html=1;verticalAlign=bottom;labelBackgroundColor=none;strokeWidth=3;rounded=0;exitX=0.75;exitY=0;exitDx=0;exitDy=0;entryX=0.3;entryY=0.95;entryDx=0;entryDy=0;entryPerimeter=0;" parent="1" source="16" target="22" edge="1">
                    <mxGeometry width="160" relative="1" as="geometry">
                        <mxPoint x="450" y="189.99999999999997" as="sourcePoint"/>
                        <mxPoint x="531.1181696702099" y="197.63818080585085" as="targetPoint"/>
                    </mxGeometry>
                </mxCell>
                <mxCell id="44" value="" style="endArrow=none;startArrow=none;endFill=0;startFill=0;endSize=8;html=1;verticalAlign=bottom;labelBackgroundColor=none;strokeWidth=3;rounded=0;exitX=1;exitY=0.3333333333333333;exitDx=0;exitDy=0;exitPerimeter=0;entryX=0;entryY=0.75;entryDx=0;entryDy=0;" parent="1" source="11" target="16" edge="1">
                    <mxGeometry width="160" relative="1" as="geometry">
                        <mxPoint x="150" y="269.99999999999994" as="sourcePoint"/>
                        <mxPoint x="231.1181696702099" y="277.6381808058508" as="targetPoint"/>
                    </mxGeometry>
                </mxCell>
                <mxCell id="46" value="" style="endArrow=none;startArrow=none;endFill=0;startFill=0;endSize=8;html=1;verticalAlign=bottom;labelBackgroundColor=none;strokeWidth=3;rounded=0;entryX=0;entryY=0.75;entryDx=0;entryDy=0;" parent="1" target="18" edge="1">
                    <mxGeometry width="160" relative="1" as="geometry">
                        <mxPoint x="90" y="300" as="sourcePoint"/>
                        <mxPoint x="290" y="267.5" as="targetPoint"/>
                    </mxGeometry>
                </mxCell>
                <mxCell id="47" value="" style="endArrow=none;startArrow=none;endFill=0;startFill=0;endSize=8;html=1;verticalAlign=bottom;labelBackgroundColor=none;strokeWidth=3;rounded=0;exitX=1;exitY=0.75;exitDx=0;exitDy=0;entryX=0;entryY=0.5;entryDx=0;entryDy=0;" parent="1" source="18" target="19" edge="1">
                    <mxGeometry width="160" relative="1" as="geometry">
                        <mxPoint x="590" y="70" as="sourcePoint"/>
                        <mxPoint x="780" y="27.5" as="targetPoint"/>
                    </mxGeometry>
                </mxCell>
                <mxCell id="48" value="" style="endArrow=none;startArrow=none;endFill=0;startFill=0;endSize=8;html=1;verticalAlign=bottom;labelBackgroundColor=none;strokeWidth=3;rounded=0;exitX=0.5;exitY=1;exitDx=0;exitDy=0;" edge="1" parent="1" source="19" target="23">
                    <mxGeometry width="160" relative="1" as="geometry">
                        <mxPoint x="760" y="122.5" as="sourcePoint"/>
                        <mxPoint x="970" y="120" as="targetPoint"/>
                    </mxGeometry>
                </mxCell>
                <mxCell id="49" value="&lt;u&gt;:編輯建議資料UI&lt;/u&gt;" style="shape=umlBoundary;whiteSpace=wrap;html=1;" vertex="1" parent="1">
                    <mxGeometry x="1290" y="60" width="100" height="80" as="geometry"/>
                </mxCell>
                <mxCell id="50" value="" style="endArrow=none;startArrow=none;endFill=0;startFill=0;endSize=8;html=1;verticalAlign=bottom;labelBackgroundColor=none;strokeWidth=3;rounded=0;exitX=1.029;exitY=0.55;exitDx=0;exitDy=0;exitPerimeter=0;" edge="1" parent="1" source="23" target="49">
                    <mxGeometry width="160" relative="1" as="geometry">
                        <mxPoint x="990" y="50" as="sourcePoint"/>
                        <mxPoint x="1077.03" y="239.03999999999996" as="targetPoint"/>
                    </mxGeometry>
                </mxCell>
                <mxCell id="51" value="編輯建議資料" style="ellipse;shape=umlControl;whiteSpace=wrap;html=1;" vertex="1" parent="1">
                    <mxGeometry x="1540" y="220" width="90" height="80" as="geometry"/>
                </mxCell>
                <mxCell id="52" value="" style="endArrow=none;startArrow=none;endFill=0;startFill=0;endSize=8;html=1;verticalAlign=bottom;labelBackgroundColor=none;strokeWidth=3;rounded=0;exitX=1.02;exitY=0.525;exitDx=0;exitDy=0;exitPerimeter=0;entryX=0.022;entryY=0.588;entryDx=0;entryDy=0;entryPerimeter=0;" edge="1" parent="1" source="49" target="51">
                    <mxGeometry width="160" relative="1" as="geometry">
                        <mxPoint x="1150.0000000000002" y="331.03" as="sourcePoint"/>
                        <mxPoint x="1247.97" y="335.002562005812" as="targetPoint"/>
                    </mxGeometry>
                </mxCell>
                <mxCell id="53" value="" style="endArrow=none;startArrow=none;endFill=0;startFill=0;endSize=8;html=1;verticalAlign=bottom;labelBackgroundColor=none;strokeWidth=3;rounded=0;entryX=0.011;entryY=0.638;entryDx=0;entryDy=0;entryPerimeter=0;" edge="1" parent="1" source="23" target="51">
                    <mxGeometry width="160" relative="1" as="geometry">
                        <mxPoint x="1010" y="255" as="sourcePoint"/>
                        <mxPoint x="1127.97" y="254.99701082484023" as="targetPoint"/>
                    </mxGeometry>
                </mxCell>
                <mxCell id="54" value="" style="endArrow=none;startArrow=none;endFill=0;startFill=0;endSize=8;html=1;verticalAlign=bottom;labelBackgroundColor=none;strokeWidth=3;rounded=0;exitX=1;exitY=0.463;exitDx=0;exitDy=0;entryX=0;entryY=0.5;entryDx=0;entryDy=0;exitPerimeter=0;" edge="1" parent="1" source="22" target="19">
                    <mxGeometry width="160" relative="1" as="geometry">
                        <mxPoint x="580" y="87.5" as="sourcePoint"/>
                        <mxPoint x="790" y="85" as="targetPoint"/>
                    </mxGeometry>
                </mxCell>
                <mxCell id="55" value="" style="endArrow=none;startArrow=none;endFill=0;startFill=0;endSize=8;html=1;verticalAlign=bottom;labelBackgroundColor=none;strokeWidth=3;rounded=0;" edge="1" parent="1" source="24" target="23">
                    <mxGeometry width="160" relative="1" as="geometry">
                        <mxPoint x="677.97" y="170" as="sourcePoint"/>
                        <mxPoint x="940" y="230" as="targetPoint"/>
                    </mxGeometry>
                </mxCell>
                <mxCell id="56" value="" style="endArrow=none;startArrow=none;endFill=0;startFill=0;endSize=8;html=1;verticalAlign=bottom;labelBackgroundColor=none;strokeWidth=3;rounded=0;exitX=0.9;exitY=0.288;exitDx=0;exitDy=0;entryX=0;entryY=0.5;entryDx=0;entryDy=0;exitPerimeter=0;" edge="1" parent="1" source="24" target="19">
                    <mxGeometry width="160" relative="1" as="geometry">
                        <mxPoint x="470" y="137.03999999999996" as="sourcePoint"/>
                        <mxPoint x="800" y="45" as="targetPoint"/>
                    </mxGeometry>
                </mxCell>
                <mxCell id="57" value="" style="endArrow=none;startArrow=none;endFill=0;startFill=0;endSize=8;html=1;verticalAlign=bottom;labelBackgroundColor=none;strokeWidth=3;rounded=0;exitX=0.682;exitY=0;exitDx=0;exitDy=0;exitPerimeter=0;" edge="1" parent="1" source="18" target="20">
                    <mxGeometry width="160" relative="1" as="geometry">
                        <mxPoint x="570" y="-17.5" as="sourcePoint"/>
                        <mxPoint x="780" y="-20" as="targetPoint"/>
                    </mxGeometry>
                </mxCell>
                <mxCell id="58" value="" style="endArrow=none;startArrow=none;endFill=0;startFill=0;endSize=8;html=1;verticalAlign=bottom;labelBackgroundColor=none;strokeWidth=3;rounded=0;exitX=0.271;exitY=0.95;exitDx=0;exitDy=0;exitPerimeter=0;" edge="1" parent="1" source="20" target="23">
                    <mxGeometry width="160" relative="1" as="geometry">
                        <mxPoint x="960" y="-40" as="sourcePoint"/>
                        <mxPoint x="1057.03" y="129.03999999999996" as="targetPoint"/>
                    </mxGeometry>
                </mxCell>
                <mxCell id="59" value="" style="endArrow=none;startArrow=none;endFill=0;startFill=0;endSize=8;html=1;verticalAlign=bottom;labelBackgroundColor=none;strokeWidth=3;rounded=0;entryX=0.5;entryY=1;entryDx=0;entryDy=0;fontStyle=1" edge="1" parent="1" source="24" target="18">
                    <mxGeometry width="160" relative="1" as="geometry">
                        <mxPoint x="458.0405031363989" y="125.72304404084298" as="sourcePoint"/>
                        <mxPoint x="540" y="-30" as="targetPoint"/>
                    </mxGeometry>
                </mxCell>
            </root>
        </mxGraphModel>
    </diagram>
</mxfile>